<svg xmlns="http://www.w3.org/2000/svg" width="26" height="26" viewBox="0 0 26 26">
    <path d="M 12.96875 0.03125 C 5.37775 0.33225 2.35625 5.64825 2.28125 5.78125 C -2.32675 13.09725 1.78125 19.53125 1.78125 19.53125 C 5.82325 25.93625 11.8745 25.90825 12.0625 25.90625 L 12.09375 25.90625 C 20.72375 26.22925 24.21875 19.46875 24.21875 19.46875 C 27.72875 12.79475 24.71475 7.54975 24.59375 7.34375 L 24.625 7.34375 C 20.591 -0.30425 12.96875 0.03125 12.96875 0.03125 z M 2.3125 5.8125 L 7.3125 10.78125 C 8.2055 8.50625 10.408 6.875 13 6.875 C 13.838 6.875 14.648 7.03875 15.375 7.34375 L 24.53125 7.34375 L 17.875 9.3125 C 18.657 10.3405 19.125 11.609 19.125 13 C 19.125 14.989 18.1575 16.757 16.6875 17.875 C 15.1185 20.595 12.80775 24.60775 12.09375 25.84375 L 13.71875 19.0625 C 13.48475 19.0895 13.241 19.125 13 19.125 C 9.913 19.125 7.3585 16.846 6.9375 13.875 C 5.3675 11.155 3.0325 7.0585 2.3125 5.8125 z M 13 8.1875 C 10.341853 8.1875 8.1875 10.341853 8.1875 13 C 8.1875 15.658147 10.341853 17.8125 13 17.8125 C 15.658147 17.8125 17.8125 15.658147 17.8125 13 C 17.8125 10.341853 15.658147 8.1875 13 8.1875 z"></path>
</svg>