<svg xmlns="http://www.w3.org/2000/svg" width="26" height="26" viewBox="0 0 50 50">
    <path style="text-indent:0;text-align:start;line-height:normal;text-transform:none;block-progression:tb;-inkscape-font-specification:Bitstream Vera Sans" d="M 43.90625 0.96875 A 1.0001 1.0001 0 0 0 43.78125 1 A 1.0001 1.0001 0 0 0 43 2 C 43 3.8991111 42.120796 4.9422799 40.5 5.96875 C 38.879204 6.9952201 36.534764 7.8263279 34.125 8.84375 C 31.715236 9.8611721 29.217868 11.080861 27.28125 13.125 C 25.518197 14.985938 24.29838 17.53914 24.09375 20.96875 C 22.294545 20.820897 21.171608 20.243292 19.96875 19.625 C 18.49875 18.87 16.821 18 14 18 C 7.981 18 0 31.683 0 42 C 0 46.71 2.467 50 6 50 C 11.303 50 14.90475 47.12275 18.09375 44.59375 C 20.53175 42.65975 22.651 41 25 41 C 27.349 41 29.46825 42.65975 31.90625 44.59375 C 35.09525 47.12275 38.697 50 44 50 C 47.533 50 50 46.71 50 42 C 50 31.683 42.019 18 36 18 C 33.179 18 31.50125 18.87 30.03125 19.625 C 28.879217 20.217167 27.796531 20.760942 26.125 20.9375 C 26.319098 17.996866 27.301476 16.028948 28.75 14.5 C 30.366132 12.794139 32.579014 11.638828 34.90625 10.65625 C 37.233486 9.6736721 39.630546 8.8797799 41.5625 7.65625 C 43.494454 6.4327201 45 4.6008889 45 2 A 1.0001 1.0001 0 0 0 43.90625 0.96875 z M 37 27 C 38.104 27 39 27.895 39 29 C 39 30.105 38.104 31 37 31 C 35.896 31 35 30.105 35 29 C 35 27.895 35.896 27 37 27 z M 12 28 L 15 28 L 15 31 L 18 31 L 18 34 L 15 34 L 15 37 L 12 37 L 12 34 L 9 34 L 9 31 L 12 31 L 12 28 z M 33 31 C 34.106 31 35 31.896 35 33 C 35 34.104 34.106 35 33 35 C 31.894 35 31 34.104 31 33 C 31 31.896 31.894 31 33 31 z M 41 31 C 42.106 31 43 31.896 43 33 C 43 34.104 42.106 35 41 35 C 39.894 35 39 34.104 39 33 C 39 31.896 39.894 31 41 31 z M 37 35 C 38.104 35 39 35.895 39 37 C 39 38.105 38.104 39 37 39 C 35.896 39 35 38.105 35 37 C 35 35.895 35.896 35 37 35 z" color="#000" overflow="visible" enable-background="accumulate" font-family="Bitstream Vera Sans"></path>
</svg>