<svg xmlns="http://www.w3.org/2000/svg" width="26" height="26" viewBox="0 0 26 26">
    <path d="M 1 2 C 0.448 2 0 2.448 0 3 L 0 25 C 0 25.553 0.448 26 1 26 L 6 26 C 6.552 26 7 25.553 7 25 L 7 3 C 7 2.448 6.552 2 6 2 L 1 2 z M 9 2 L 9 4 L 23 4 C 23.551 4 24 4.449 24 5 L 24 16 C 24 16.551 23.551 17 23 17 L 9 17 L 9 21 L 11 21 L 11 22 C 11 22.551 11.449 23 12 23 L 16 23 C 16.551 23 17 22.563 17 22 L 17 21 L 23 21 C 24.656 21 26 19.656 26 18 L 26 5 C 26 3.344 24.656 2 23 2 L 9 2 z M 3.5 18.84375 C 4.414 18.84375 5.15625 19.585 5.15625 20.5 C 5.15625 21.415 4.414 22.15625 3.5 22.15625 C 2.585 22.15625 1.84375 21.415 1.84375 20.5 C 1.84375 19.585 2.585 18.84375 3.5 18.84375 z M 10 24 C 9.449 24 9 24.435 9 25 L 9 26 L 19 26 L 19 25 C 19 24.449 18.551 24 18 24 L 10 24 z"></path>
</svg>