<svg xmlns="http://www.w3.org/2000/svg" width="26" height="26" viewBox="0 0 26 26">
    <path d="M 13 0 C 12.76175 0 12.5305 0.04275 12.3125 0.15625 L 0.8125 6.15625 C 0.3005 6.42325 0 6.959 0 7.5 L 0 25 C 0 25.552 0.448 26 1 26 L 4 26 C 3.448 26 3 25.552 3 25 L 3 23 L 3 18 C 3 17.888 3.151 17.513 3.375 17 L 3 17 C 2.448 17 2 16.552 2 16 L 2 15 C 2 14.448 2.448 14 3 14 L 4.78125 14 C 5.20825 13.119 5.5915 12.30475 5.8125 11.84375 C 6.7085 9.97775 7.344 9 9 9 L 17 9 C 18.656 9 19.3525 9.97775 20.1875 11.84375 C 20.3945 12.30475 20.7605 13.119 21.1875 14 L 23 14 C 23.552 14 24 14.448 24 15 L 24 16 C 24 16.552 23.552 17 23 17 L 22.625 17 C 22.854 17.513 23 17.887 23 18 L 23 23 L 23 25 C 23 25.552 22.552 26 22 26 L 25 26 C 25.552 26 26 25.552 26 25 L 26 7.46875 C 26.001 6.93775 25.6945 6.42125 25.1875 6.15625 L 13.6875 0.15625 C 13.4695 0.04275 13.23825 0 13 0 z M 8.9375 10.875 C 8.5925 10.875 8.18375 10.95275 7.46875 12.46875 C 7.14575 13.15075 5.4375 17 5.4375 17 L 20.5625 17 C 20.1135 15.873 18.8365 13.16575 18.5625 12.46875 C 18.0135 11.07875 17.3895 10.875 17.0625 10.875 L 8.9375 10.875 z M 6.5 18.71875 C 5.5246651 18.71875 4.71875 19.524665 4.71875 20.5 C 4.71875 21.475335 5.5246651 22.28125 6.5 22.28125 C 7.4753349 22.28125 8.28125 21.475335 8.28125 20.5 C 8.28125 19.524665 7.4753349 18.71875 6.5 18.71875 z M 19.5 18.71875 C 18.524665 18.71875 17.71875 19.524665 17.71875 20.5 C 17.71875 21.475335 18.524665 22.28125 19.5 22.28125 C 20.475335 22.28125 21.28125 21.475335 21.28125 20.5 C 21.28125 19.524665 20.475335 18.71875 19.5 18.71875 z M 7 24 L 7 25 C 7 25.552 6.552 26 6 26 L 20 26 C 19.449 26 19 25.552 19 25 L 19 24 L 7 24 z"></path>
</svg>