<svg xmlns="http://www.w3.org/2000/svg" width="26" height="26" viewBox="0 0 50 50">
    <path d="M 25 0.84375 L 0 15.4375 L 0 45 L 50 45 L 50 15.4375 L 25 0.84375 z M 22.40625 14 L 27.3125 14 C 27.6125 14 27.90625 14.2 27.90625 14.5 L 28.1875 17.59375 C 28.9875 17.99375 29.70625 18.40625 30.40625 18.90625 L 33.3125 17.59375 C 33.6125 17.39375 33.89475 17.5125 34.09375 17.8125 L 36.59375 22.09375 C 36.69475 22.39375 36.70625 22.70625 36.40625 22.90625 L 33.90625 24.6875 C 34.00525 25.1875 34 25.6 34 26 C 34 26.4 34.00625 26.8125 33.90625 27.3125 L 36.6875 29.09375 C 36.9875 29.29375 37.10625 29.60625 36.90625 29.90625 L 34.40625 34.1875 C 34.20625 34.3875 33.89475 34.50625 33.59375 34.40625 L 30.6875 33.09375 C 29.9875 33.69475 29.3 34.10525 28.5 34.40625 L 28.1875 37.5 C 28.1875 37.8 27.89475 38 27.59375 38 L 22.6875 38 C 22.3875 38 22.09375 37.8 22.09375 37.5 L 21.8125 34.40625 C 21.0125 34.00525 20.29375 33.59375 19.59375 33.09375 L 16.6875 34.40625 C 16.3875 34.60525 16.10625 34.4875 15.90625 34.1875 L 13.40625 29.90625 C 13.30625 29.60625 13.29375 29.29375 13.59375 29.09375 L 16.09375 27.3125 C 15.99375 26.8125 16 26.4 16 26 C 16 25.6 16.0125 25.1875 15.8125 24.6875 L 13.3125 22.90625 C 13.0125 22.70625 12.89375 22.39375 13.09375 22.09375 L 15.59375 17.8125 C 15.79375 17.6125 16.10625 17.49375 16.40625 17.59375 L 19.3125 18.90625 C 20.0125 18.30625 20.7 17.89375 21.5 17.59375 L 21.8125 14.5 C 21.8125 14.2 22.10625 14 22.40625 14 z M 25 21 C 22.2 21 20 23.2 20 26 C 20 28.8 22.2 31 25 31 C 27.8 31 30 28.8 30 26 C 30 23.2 27.8 21 25 21 z"></path>
</svg>