<svg xmlns="http://www.w3.org/2000/svg" width="26" height="26" version="1" viewBox="0 0 24 24" enable-background="new 0 0 24 24">
    <path d="M 4 3 C 3.4777778 3 2.9395305 3.1854695 2.5625 3.5625 C 2.1854695 3.9395305 2 4.4777778 2 5 L 2 15 C 2 15.522222 2.1854695 16.060469 2.5625 16.4375 C 2.9395305 16.814531 3.4777778 17 4 17 L 0 17 L 0 18 C 0 19.1 0.9 20 2 20 L 22 20 C 23.1 20 24 19.1 24 18 L 24 17 L 20 17 C 20.522222 17 21.060469 16.814531 21.4375 16.4375 C 21.814531 16.060469 22 15.522222 22 15 L 22 5 C 22 4.4777778 21.814531 3.9395305 21.4375 3.5625 C 21.060469 3.1854695 20.522222 3 20 3 L 4 3 z M 4 5 L 20 5 L 20 15 L 4 15 L 4 5 z"></path>
</svg>