<svg xmlns="http://www.w3.org/2000/svg" xmlns:xlink="http://www.w3.org/1999/xlink" version="1.1" id="imgView" x="0px" y="0px" viewBox="0 0 31.685 31.685" style="enable-background:new 0 0 31.685 31.685;" xml:space="preserve" class="detail convertSvgInline replaced-svg" width="26" height="26" data-id="685" data-kw="music250">
<g>
	<path d="M23.084,0H8.6C7.324,0,6.294,1.034,6.294,2.309v27.07c0,1.271,1.03,2.306,2.306,2.306h14.484   c1.273,0,2.307-1.034,2.307-2.306V2.309C25.391,1.034,24.357,0,23.084,0z M15.846,27.746c-2.846,0-5.16-2.312-5.16-5.16   c0-2.849,2.314-5.152,5.16-5.152c2.838,0,5.152,2.304,5.152,5.152C20.998,25.433,18.684,27.746,15.846,27.746z M15.844,25.198   c-1.463,0-2.653-1.188-2.653-2.652s1.19-2.649,2.653-2.649c1.459,0,2.648,1.185,2.648,2.649S17.303,25.198,15.844,25.198z    M23.663,14.456H8.022V2.739h15.642v11.717H23.663z"></path>
</g>
</svg>