<svg xmlns="http://www.w3.org/2000/svg" width="26" height="26" viewBox="0 0 26 26">
    <path style="text-indent:0;text-align:start;line-height:normal;text-transform:none;block-progression:tb;-inkscape-font-specification:Bitstream Vera Sans" d="M 23.5 0 C 22.119 0 21 1.119 21 2.5 C 21 3.881 22.119 5 23.5 5 C 24.881 5 26 3.881 26 2.5 C 26 1.119 24.881 0 23.5 0 z M 17.875 0.03125 A 1.0001 1.0001 0 0 0 17.3125 1.75 L 17.5625 2 L 16 2 C 13.305561 2 10.170672 2.6458074 7.59375 4.21875 C 5.7880044 5.3209695 4.285706 6.9596848 3.53125 9.0625 C 1.5444825 9.2959722 0 10.9505 0 13 C 0 15.0495 1.5444825 16.704028 3.53125 16.9375 C 4.2842924 19.04428 5.7886814 20.679444 7.59375 21.78125 C 10.170672 23.354193 13.305561 24 16 24 L 17.625 24 L 17.34375 24.28125 A 1.0001 1.0001 0 1 0 18.78125 25.65625 L 20.71875 23.65625 A 1.0001 1.0001 0 0 0 20.6875 22.25 L 18.6875 20.3125 A 1.0001 1.0001 0 0 0 18.15625 20.03125 A 1.0001 1.0001 0 0 0 18.78125 19.65625 L 20.71875 17.65625 A 1.0001 1.0001 0 0 0 20.6875 16.25 L 18.6875 14.3125 A 1.0001 1.0001 0 0 0 17.875 14.03125 A 1.0001 1.0001 0 0 0 17.3125 15.75 L 17.5625 16 L 16 16 C 13.67302 16 12.403734 15.356773 10.625 14.59375 C 9.8468038 14.259927 8.9691378 13.91099 7.9375 13.625 C 7.9504367 13.542472 7.9608962 13.459118 7.96875 13.375 C 8.9840495 13.092021 9.8541453 12.736923 10.625 12.40625 C 12.403734 11.643227 13.67302 11 16 11 L 17.625 11 L 17.34375 11.28125 A 1.0001 1.0001 0 1 0 18.78125 12.65625 L 20.71875 10.65625 A 1.0001 1.0001 0 0 0 20.6875 9.25 L 18.6875 7.3125 A 1.0001 1.0001 0 0 0 17.875 7.03125 A 1.0001 1.0001 0 0 0 17.3125 8.75 L 17.5625 9 L 16 9 C 13.27698 9 11.530516 9.8567732 9.8125 10.59375 C 9.1410994 10.881761 8.4315119 11.143574 7.65625 11.375 C 7.2402758 10.437508 6.4806707 9.7036971 5.53125 9.3125 C 6.1407308 7.8886024 7.2361969 6.7852195 8.625 5.9375 C 10.785578 4.6186926 13.644439 4 16 4 L 17.625 4 L 17.34375 4.28125 A 1.0001 1.0001 0 1 0 18.78125 5.65625 L 20.71875 3.65625 A 1.0001 1.0001 0 0 0 20.6875 2.25 L 18.6875 0.3125 A 1.0001 1.0001 0 0 0 17.875 0.03125 z M 23.5 2 C 23.776 2 24 2.224 24 2.5 C 24 2.776 23.776 3 23.5 3 C 23.224 3 23 2.776 23 2.5 C 23 2.224 23.224 2 23.5 2 z M 23.5 7 C 22.119 7 21 8.119 21 9.5 C 21 10.881 22.119 12 23.5 12 C 24.881 12 26 10.881 26 9.5 C 26 8.119 24.881 7 23.5 7 z M 23.5 9 C 23.776 9 24 9.224 24 9.5 C 24 9.776 23.776 10 23.5 10 C 23.224 10 23 9.776 23 9.5 C 23 9.224 23.224 9 23.5 9 z M 23.5 14 C 22.119 14 21 15.119 21 16.5 C 21 17.881 22.119 19 23.5 19 C 24.881 19 26 17.881 26 16.5 C 26 15.119 24.881 14 23.5 14 z M 7.125 15.5 C 8.1296398 15.74868 8.995967 16.055982 9.8125 16.40625 C 11.530516 17.143227 13.27698 18 16 18 L 17.625 18 L 17.34375 18.28125 A 1.0001 1.0001 0 0 0 17.84375 20.03125 A 1.0001 1.0001 0 0 0 17.3125 21.75 L 17.5625 22 L 16 22 C 13.644439 22 10.785578 21.381307 8.625 20.0625 C 7.2278957 19.209714 6.1349904 18.124531 5.53125 16.6875 C 6.1519794 16.427719 6.7108627 16.018602 7.125 15.5 z M 23.5 16 C 23.776 16 24 16.224 24 16.5 C 24 16.776 23.776 17 23.5 17 C 23.224 17 23 16.776 23 16.5 C 23 16.224 23.224 16 23.5 16 z M 23.5 21 C 22.119 21 21 22.119 21 23.5 C 21 24.881 22.119 26 23.5 26 C 24.881 26 26 24.881 26 23.5 C 26 22.119 24.881 21 23.5 21 z M 23.5 23 C 23.776 23 24 23.224 24 23.5 C 24 23.776 23.776 24 23.5 24 C 23.224 24 23 23.776 23 23.5 C 23 23.224 23.224 23 23.5 23 z"></path>
</svg>