<svg xmlns="http://www.w3.org/2000/svg" width="26" height="26" viewBox="0 0 26 26">
    <path style="text-indent:0;text-align:start;line-height:normal;text-transform:none;block-progression:tb;-inkscape-font-specification:Bitstream Vera Sans" d="M 13 3 C 9.919863 3 6.8588042 3.190243 4.75 3.53125 C 3.293407 3.7666489 2.1985599 3.8486182 1.25 4.46875 C 0.77572003 4.7788159 0.37787931 5.27595 0.1875 5.84375 C -0.00287931 6.41155 -0.04042166 7.0271167 0 7.75 C 0.45708459 15.928268 2.120487 20.217694 2.21875 20.46875 C 2.229351 20.52944 2.26559 20.595067 2.28125 20.65625 C 2.6083827 21.934363 4.0232423 23.26908 7.25 23.65625 C 9.2163599 23.891926 11.224197 24 13 24 C 14.775803 24 16.784048 23.891877 18.75 23.65625 C 21.976758 23.26908 23.391617 21.934363 23.71875 20.65625 C 23.72888 20.61668 23.742 20.57063 23.75 20.53125 C 23.750669 20.52955 23.78023 20.47135 23.78125 20.46875 C 23.879513 20.217694 25.542915 15.928268 26 7.75 C 26.040418 7.0271803 26.002725 6.4115037 25.8125 5.84375 C 25.622275 5.2759963 25.224193 4.7788836 24.75 4.46875 C 23.801613 3.8484827 22.706611 3.7666518 21.25 3.53125 C 19.14011 3.1902366 16.080137 3 13 3 z M 13 5 C 15.991863 5 19.01339 5.1890134 20.9375 5.5 C 22.413889 5.7385982 23.358887 5.9617673 23.65625 6.15625 C 23.804932 6.253491 23.840006 6.302285 23.90625 6.5 C 23.97249 6.697715 24.032582 7.0735697 24 7.65625 C 23.542671 15.838882 21.875 19.90625 21.875 19.90625 A 1.0001 1.0001 0 0 0 21.8125 20.125 C 21.782559 20.296416 21.402777 21.339204 18.5 21.6875 C 16.627952 21.911873 14.702197 22 13 22 C 11.297803 22 9.3716401 21.911824 7.5 21.6875 C 4.5972226 21.339204 4.2174407 20.296416 4.1875 20.125 A 1.0001 1.0001 0 0 0 4.125 19.90625 C 4.125 19.90625 2.4573285 15.838882 2 7.65625 C 1.9674217 7.0736333 2.0274731 6.6976688 2.09375 6.5 C 2.1600269 6.3023312 2.194905 6.2535591 2.34375 6.15625 C 2.6414401 5.9616318 3.586093 5.7386011 5.0625 5.5 C 6.9856958 5.189007 10.008137 5 13 5 z M 12.90625 7.03125 C 10.88225 7.03125 8.7825 7.10275 7.4375 7.34375 C 5.4825 7.69375 4.75625 8.41175 5.03125 11.71875 C 5.50025 17.36775 5.92175 18.5565 6.09375 19.0625 C 6.46875 20.1715 6.55025 20.66375 8.53125 20.84375 C 9.97225 20.97475 11.74725 21 12.90625 21 C 12.92825 21 12.94775 20.97875 12.96875 20.96875 C 12.99075 20.97975 13.0395 21 13.0625 21 C 14.2205 21 15.9935 20.97475 17.4375 20.84375 C 19.4165 20.66375 19.503 20.1715 19.875 19.0625 C 20.047 18.5565 20.4705 17.36775 20.9375 11.71875 C 21.2125 8.41175 20.48825 7.69375 18.53125 7.34375 C 17.18625 7.10375 15.0895 7.03125 13.0625 7.03125 C 13.0375 7.03125 12.99275 7.0575 12.96875 7.0625 C 12.94575 7.0575 12.93125 7.03125 12.90625 7.03125 z M 8.40625 17 L 9.59375 17 C 9.82675 17 10 17.17325 10 17.40625 L 10 18.59375 C 10 18.82675 9.82675 19 9.59375 19 L 8.40625 19 C 8.17325 19 8 18.82675 8 18.59375 L 8 17.40625 C 8 17.17325 8.17325 17 8.40625 17 z M 12.40625 17 L 13.59375 17 C 13.82575 17 14 17.17325 14 17.40625 L 14 18.59375 C 14 18.82575 13.82575 19 13.59375 19 L 12.40625 19 C 12.17325 19 12 18.82675 12 18.59375 L 12 17.40625 C 12 17.17325 12.17325 17 12.40625 17 z M 16.40625 17 L 17.59375 17 C 17.82575 17 18 17.17325 18 17.40625 L 18 18.59375 C 18 18.82575 17.82575 19 17.59375 19 L 16.40625 19 C 16.17325 19 16 18.82675 16 18.59375 L 16 17.40625 C 16 17.17325 16.17325 17 16.40625 17 z" color="#000" overflow="visible" enable-background="accumulate" font-family="Bitstream Vera Sans"></path>
</svg>