<svg xmlns="http://www.w3.org/2000/svg" width="26" height="26" viewBox="0 0 50 50" enable-background="new 0 0 50 50">
    <path d="M 9 0 L 9 1 L 9 14 L 3 14 C 1.3 14 0 15.3 0 17 L 0 38 C 0 39.7 1.3 41 3 41 L 9 41 L 9 50 L 41 50 L 41 41 L 47 41 C 48.7 41 50 39.7 50 38 L 50 17 C 50 15.3 48.7 14 47 14 L 41 14 L 41 1 L 41 0 L 40 0 L 10 0 L 9 0 z M 11 2 L 39 2 L 39 14 L 11 14 L 11 2 z M 43 19 C 44.1 19 45 19.9 45 21 C 45 22.1 44.1 23 43 23 C 41.9 23 41 22.1 41 21 C 41 19.9 41.9 19 43 19 z M 11 30 L 39 30 L 39 48 L 11 48 L 11 30 z M 15 34 C 14.4 34 14 34.4 14 35 C 14 35.6 14.4 36 15 36 L 35 36 C 35.6 36 36 35.6 36 35 C 36 34.4 35.6 34 35 34 L 15 34 z M 15 38 C 14.4 38 14 38.4 14 39 C 14 39.6 14.4 40 15 40 L 31 40 C 31.6 40 32 39.6 32 39 C 32 38.4 31.6 38 31 38 L 15 38 z M 15 42 C 14.4 42 14 42.4 14 43 C 14 43.6 14.4 44 15 44 L 35 44 C 35.6 44 36 43.6 36 43 C 36 42.4 35.6 42 35 42 L 15 42 z"></path>
</svg>