<svg xmlns="http://www.w3.org/2000/svg" xmlns:xlink="http://www.w3.org/1999/xlink" version="1.1" id="imgView" x="0px" y="0px" width="26" height="26" viewBox="0 0 533.333 533.333" style="enable-background:new 0 0 533.333 533.333;" xml:space="preserve" class="detail convertSvgInline replaced-svg" data-id="24111" data-kw="computer71">
<g>
	<path d="M433.333,0H100C72.5,0,50,22.5,50,50v433.333c0,27.501,22.5,50,50,50h333.333c27.5,0,50-22.499,50-50V50   C483.333,22.5,460.833,0,433.333,0z M266.666,516.667c-9.204,0-16.667-7.462-16.667-16.667s7.462-16.667,16.667-16.667   s16.667,7.462,16.667,16.667S275.87,516.667,266.666,516.667z M416.666,466.667h-300v-400h300V466.667z"></path>
</g>
</svg>